<svg xmlns="http://www.w3.org/2000/svg" xmlns:xlink="http://www.w3.org/1999/xlink" width="500" zoomAndPan="magnify" viewBox="0 0 375 374.999991" height="500" preserveAspectRatio="xMidYMid meet" version="1.0"><defs><g/></defs><g fill="#c7a17a" fill-opacity="1"><g transform="translate(0.0000045, 157.410597)"><g><path d="M 28.625 0.65625 C 23.5625 0.65625 19.226562 -0.410156 15.625 -2.546875 C 12.019531 -4.691406 9.253906 -7.734375 7.328125 -11.671875 C 5.410156 -15.617188 4.453125 -20.320312 4.453125 -25.78125 C 4.453125 -29.863281 5 -33.523438 6.09375 -36.765625 C 7.1875 -40.003906 8.769531 -42.753906 10.84375 -45.015625 C 12.914062 -47.273438 15.457031 -49.023438 18.46875 -50.265625 C 21.488281 -51.515625 24.875 -52.140625 28.625 -52.140625 C 31.644531 -52.140625 34.515625 -51.710938 37.234375 -50.859375 C 39.960938 -50.003906 42.328125 -48.75 44.328125 -47.09375 C 44.953125 -46.601562 45.375 -46.054688 45.59375 -45.453125 C 45.8125 -44.847656 45.835938 -44.265625 45.671875 -43.703125 C 45.503906 -43.140625 45.210938 -42.675781 44.796875 -42.3125 C 44.378906 -41.945312 43.878906 -41.765625 43.296875 -41.765625 C 42.710938 -41.765625 42.054688 -42.007812 41.328125 -42.5 C 39.578125 -43.90625 37.65625 -44.945312 35.5625 -45.625 C 33.46875 -46.3125 31.203125 -46.65625 28.765625 -46.65625 C 24.921875 -46.65625 21.660156 -45.835938 18.984375 -44.203125 C 16.304688 -42.578125 14.285156 -40.207031 12.921875 -37.09375 C 11.554688 -33.976562 10.875 -30.207031 10.875 -25.78125 C 10.875 -21.34375 11.554688 -17.554688 12.921875 -14.421875 C 14.285156 -11.285156 16.304688 -8.898438 18.984375 -7.265625 C 21.660156 -5.628906 24.921875 -4.8125 28.765625 -4.8125 C 31.148438 -4.8125 33.410156 -5.164062 35.546875 -5.875 C 37.691406 -6.582031 39.664062 -7.640625 41.46875 -9.046875 C 42.195312 -9.535156 42.851562 -9.769531 43.4375 -9.75 C 44.03125 -9.726562 44.519531 -9.546875 44.90625 -9.203125 C 45.289062 -8.859375 45.566406 -8.414062 45.734375 -7.875 C 45.910156 -7.34375 45.910156 -6.785156 45.734375 -6.203125 C 45.566406 -5.617188 45.191406 -5.109375 44.609375 -4.671875 C 42.566406 -2.921875 40.171875 -1.59375 37.421875 -0.6875 C 34.671875 0.207031 31.738281 0.65625 28.625 0.65625 Z M 28.625 0.65625 "/></g></g></g><g fill="#c7a17a" fill-opacity="1"><g transform="translate(46.578783, 157.410597)"><g><path d="M 20.296875 0.65625 C 16.835938 0.65625 13.84375 -0.0976562 11.3125 -1.609375 C 8.78125 -3.117188 6.820312 -5.25 5.4375 -8 C 4.050781 -10.75 3.359375 -14 3.359375 -17.75 C 3.359375 -20.570312 3.742188 -23.113281 4.515625 -25.375 C 5.296875 -27.632812 6.441406 -29.566406 7.953125 -31.171875 C 9.460938 -32.785156 11.25 -34.015625 13.3125 -34.859375 C 15.382812 -35.710938 17.710938 -36.140625 20.296875 -36.140625 C 23.753906 -36.140625 26.75 -35.382812 29.28125 -33.875 C 31.8125 -32.363281 33.769531 -30.234375 35.15625 -27.484375 C 36.539062 -24.734375 37.234375 -21.488281 37.234375 -17.75 C 37.234375 -14.925781 36.84375 -12.394531 36.0625 -10.15625 C 35.289062 -7.914062 34.148438 -5.976562 32.640625 -4.34375 C 31.128906 -2.707031 29.335938 -1.460938 27.265625 -0.609375 C 25.203125 0.234375 22.878906 0.65625 20.296875 0.65625 Z M 20.296875 -4.09375 C 22.484375 -4.09375 24.40625 -4.625 26.0625 -5.6875 C 27.71875 -6.757812 28.992188 -8.316406 29.890625 -10.359375 C 30.796875 -12.410156 31.25 -14.875 31.25 -17.75 C 31.25 -22.175781 30.265625 -25.554688 28.296875 -27.890625 C 26.328125 -30.222656 23.660156 -31.390625 20.296875 -31.390625 C 18.054688 -31.390625 16.117188 -30.863281 14.484375 -29.8125 C 12.859375 -28.769531 11.59375 -27.238281 10.6875 -25.21875 C 9.789062 -23.207031 9.34375 -20.71875 9.34375 -17.75 C 9.34375 -13.363281 10.335938 -9.988281 12.328125 -7.625 C 14.328125 -5.269531 16.984375 -4.09375 20.296875 -4.09375 Z M 20.296875 -4.09375 "/></g></g></g><g fill="#c7a17a" fill-opacity="1"><g transform="translate(86.806033, 157.410597)"><g><path d="M 10.375 0.515625 C 9.445312 0.515625 8.726562 0.25 8.21875 -0.28125 C 7.707031 -0.820312 7.453125 -1.582031 7.453125 -2.5625 L 7.453125 -30.890625 L 2.78125 -30.890625 C 2 -30.890625 1.375 -31.09375 0.90625 -31.5 C 0.445312 -31.914062 0.21875 -32.488281 0.21875 -33.21875 C 0.21875 -33.945312 0.445312 -34.503906 0.90625 -34.890625 C 1.375 -35.285156 2 -35.484375 2.78125 -35.484375 L 9.046875 -35.484375 L 7.453125 -33.953125 L 7.453125 -36.734375 C 7.453125 -41.347656 8.582031 -44.875 10.84375 -47.3125 C 13.101562 -49.75 16.425781 -51.160156 20.8125 -51.546875 L 22.921875 -51.765625 C 23.609375 -51.816406 24.15625 -51.695312 24.5625 -51.40625 C 24.976562 -51.113281 25.25 -50.75 25.375 -50.3125 C 25.5 -49.875 25.507812 -49.421875 25.40625 -48.953125 C 25.3125 -48.492188 25.09375 -48.09375 24.75 -47.75 C 24.40625 -47.40625 23.992188 -47.210938 23.515625 -47.171875 L 21.828125 -47.015625 C 18.859375 -46.773438 16.703125 -45.875 15.359375 -44.3125 C 14.023438 -42.757812 13.359375 -40.472656 13.359375 -37.453125 L 13.359375 -34.390625 L 12.484375 -35.484375 L 21.25 -35.484375 C 22.070312 -35.484375 22.703125 -35.285156 23.140625 -34.890625 C 23.578125 -34.503906 23.796875 -33.945312 23.796875 -33.21875 C 23.796875 -32.488281 23.578125 -31.914062 23.140625 -31.5 C 22.703125 -31.09375 22.070312 -30.890625 21.25 -30.890625 L 13.359375 -30.890625 L 13.359375 -2.5625 C 13.359375 -0.507812 12.363281 0.515625 10.375 0.515625 Z M 10.375 0.515625 "/></g></g></g><g fill="#c7a17a" fill-opacity="1"><g transform="translate(109.949418, 157.410597)"><g><path d="M 10.375 0.515625 C 9.445312 0.515625 8.726562 0.25 8.21875 -0.28125 C 7.707031 -0.820312 7.453125 -1.582031 7.453125 -2.5625 L 7.453125 -30.890625 L 2.78125 -30.890625 C 2 -30.890625 1.375 -31.09375 0.90625 -31.5 C 0.445312 -31.914062 0.21875 -32.488281 0.21875 -33.21875 C 0.21875 -33.945312 0.445312 -34.503906 0.90625 -34.890625 C 1.375 -35.285156 2 -35.484375 2.78125 -35.484375 L 9.046875 -35.484375 L 7.453125 -33.953125 L 7.453125 -36.734375 C 7.453125 -41.347656 8.582031 -44.875 10.84375 -47.3125 C 13.101562 -49.75 16.425781 -51.160156 20.8125 -51.546875 L 22.921875 -51.765625 C 23.609375 -51.816406 24.15625 -51.695312 24.5625 -51.40625 C 24.976562 -51.113281 25.25 -50.75 25.375 -50.3125 C 25.5 -49.875 25.507812 -49.421875 25.40625 -48.953125 C 25.3125 -48.492188 25.09375 -48.09375 24.75 -47.75 C 24.40625 -47.40625 23.992188 -47.210938 23.515625 -47.171875 L 21.828125 -47.015625 C 18.859375 -46.773438 16.703125 -45.875 15.359375 -44.3125 C 14.023438 -42.757812 13.359375 -40.472656 13.359375 -37.453125 L 13.359375 -34.390625 L 12.484375 -35.484375 L 21.25 -35.484375 C 22.070312 -35.484375 22.703125 -35.285156 23.140625 -34.890625 C 23.578125 -34.503906 23.796875 -33.945312 23.796875 -33.21875 C 23.796875 -32.488281 23.578125 -31.914062 23.140625 -31.5 C 22.703125 -31.09375 22.070312 -30.890625 21.25 -30.890625 L 13.359375 -30.890625 L 13.359375 -2.5625 C 13.359375 -0.507812 12.363281 0.515625 10.375 0.515625 Z M 10.375 0.515625 "/></g></g></g><g fill="#c7a17a" fill-opacity="1"><g transform="translate(133.23883, 157.410597)"><g><path d="M 21.546875 0.65625 C 17.796875 0.65625 14.566406 -0.0820312 11.859375 -1.5625 C 9.160156 -3.050781 7.066406 -5.15625 5.578125 -7.875 C 4.097656 -10.601562 3.359375 -13.867188 3.359375 -17.671875 C 3.359375 -21.367188 4.085938 -24.59375 5.546875 -27.34375 C 7.003906 -30.09375 9.007812 -32.242188 11.5625 -33.796875 C 14.125 -35.359375 17.082031 -36.140625 20.4375 -36.140625 C 22.820312 -36.140625 24.960938 -35.738281 26.859375 -34.9375 C 28.765625 -34.132812 30.382812 -32.976562 31.71875 -31.46875 C 33.0625 -29.957031 34.082031 -28.128906 34.78125 -25.984375 C 35.488281 -23.847656 35.84375 -21.441406 35.84375 -18.765625 C 35.84375 -17.984375 35.625 -17.410156 35.1875 -17.046875 C 34.75 -16.679688 34.117188 -16.5 33.296875 -16.5 L 7.890625 -16.5 L 7.890625 -20.375 L 31.90625 -20.375 L 30.734375 -19.421875 C 30.734375 -22.046875 30.34375 -24.269531 29.5625 -26.09375 C 28.789062 -27.925781 27.660156 -29.328125 26.171875 -30.296875 C 24.691406 -31.273438 22.832031 -31.765625 20.59375 -31.765625 C 18.101562 -31.765625 15.992188 -31.191406 14.265625 -30.046875 C 12.546875 -28.898438 11.242188 -27.316406 10.359375 -25.296875 C 9.484375 -23.273438 9.046875 -20.925781 9.046875 -18.25 L 9.046875 -17.8125 C 9.046875 -13.332031 10.128906 -9.925781 12.296875 -7.59375 C 14.460938 -5.257812 17.546875 -4.09375 21.546875 -4.09375 C 23.191406 -4.09375 24.832031 -4.3125 26.46875 -4.75 C 28.101562 -5.1875 29.695312 -5.914062 31.25 -6.9375 C 31.925781 -7.375 32.546875 -7.578125 33.109375 -7.546875 C 33.671875 -7.523438 34.117188 -7.359375 34.453125 -7.046875 C 34.796875 -6.734375 35.03125 -6.34375 35.15625 -5.875 C 35.28125 -5.414062 35.234375 -4.914062 35.015625 -4.375 C 34.796875 -3.84375 34.367188 -3.382812 33.734375 -3 C 32.128906 -1.820312 30.226562 -0.914062 28.03125 -0.28125 C 25.84375 0.34375 23.679688 0.65625 21.546875 0.65625 Z M 21.546875 0.65625 "/></g></g></g><g fill="#c7a17a" fill-opacity="1"><g transform="translate(172.078954, 157.410597)"><g><path d="M 21.546875 0.65625 C 17.796875 0.65625 14.566406 -0.0820312 11.859375 -1.5625 C 9.160156 -3.050781 7.066406 -5.15625 5.578125 -7.875 C 4.097656 -10.601562 3.359375 -13.867188 3.359375 -17.671875 C 3.359375 -21.367188 4.085938 -24.59375 5.546875 -27.34375 C 7.003906 -30.09375 9.007812 -32.242188 11.5625 -33.796875 C 14.125 -35.359375 17.082031 -36.140625 20.4375 -36.140625 C 22.820312 -36.140625 24.960938 -35.738281 26.859375 -34.9375 C 28.765625 -34.132812 30.382812 -32.976562 31.71875 -31.46875 C 33.0625 -29.957031 34.082031 -28.128906 34.78125 -25.984375 C 35.488281 -23.847656 35.84375 -21.441406 35.84375 -18.765625 C 35.84375 -17.984375 35.625 -17.410156 35.1875 -17.046875 C 34.75 -16.679688 34.117188 -16.5 33.296875 -16.5 L 7.890625 -16.5 L 7.890625 -20.375 L 31.90625 -20.375 L 30.734375 -19.421875 C 30.734375 -22.046875 30.34375 -24.269531 29.5625 -26.09375 C 28.789062 -27.925781 27.660156 -29.328125 26.171875 -30.296875 C 24.691406 -31.273438 22.832031 -31.765625 20.59375 -31.765625 C 18.101562 -31.765625 15.992188 -31.191406 14.265625 -30.046875 C 12.546875 -28.898438 11.242188 -27.316406 10.359375 -25.296875 C 9.484375 -23.273438 9.046875 -20.925781 9.046875 -18.25 L 9.046875 -17.8125 C 9.046875 -13.332031 10.128906 -9.925781 12.296875 -7.59375 C 14.460938 -5.257812 17.546875 -4.09375 21.546875 -4.09375 C 23.191406 -4.09375 24.832031 -4.3125 26.46875 -4.75 C 28.101562 -5.1875 29.695312 -5.914062 31.25 -6.9375 C 31.925781 -7.375 32.546875 -7.578125 33.109375 -7.546875 C 33.671875 -7.523438 34.117188 -7.359375 34.453125 -7.046875 C 34.796875 -6.734375 35.03125 -6.34375 35.15625 -5.875 C 35.28125 -5.414062 35.234375 -4.914062 35.015625 -4.375 C 34.796875 -3.84375 34.367188 -3.382812 33.734375 -3 C 32.128906 -1.820312 30.226562 -0.914062 28.03125 -0.28125 C 25.84375 0.34375 23.679688 0.65625 21.546875 0.65625 Z M 21.546875 0.65625 "/></g></g></g><g fill="#F5F5F5" fill-opacity="1"><g transform="translate(206.40569, 157.410597)"><g><path d="M 28.625 0.65625 C 23.5625 0.65625 19.226562 -0.410156 15.625 -2.546875 C 12.019531 -4.691406 9.253906 -7.734375 7.328125 -11.671875 C 5.410156 -15.617188 4.453125 -20.320312 4.453125 -25.78125 C 4.453125 -29.863281 5 -33.523438 6.09375 -36.765625 C 7.1875 -40.003906 8.769531 -42.753906 10.84375 -45.015625 C 12.914062 -47.273438 15.457031 -49.023438 18.46875 -50.265625 C 21.488281 -51.515625 24.875 -52.140625 28.625 -52.140625 C 31.644531 -52.140625 34.515625 -51.710938 37.234375 -50.859375 C 39.960938 -50.003906 42.328125 -48.75 44.328125 -47.09375 C 44.953125 -46.601562 45.375 -46.054688 45.59375 -45.453125 C 45.8125 -44.847656 45.835938 -44.265625 45.671875 -43.703125 C 45.503906 -43.140625 45.210938 -42.675781 44.796875 -42.3125 C 44.378906 -41.945312 43.878906 -41.765625 43.296875 -41.765625 C 42.710938 -41.765625 42.054688 -42.007812 41.328125 -42.5 C 39.578125 -43.90625 37.65625 -44.945312 35.5625 -45.625 C 33.46875 -46.3125 31.203125 -46.65625 28.765625 -46.65625 C 24.921875 -46.65625 21.660156 -45.835938 18.984375 -44.203125 C 16.304688 -42.578125 14.285156 -40.207031 12.921875 -37.09375 C 11.554688 -33.976562 10.875 -30.207031 10.875 -25.78125 C 10.875 -21.34375 11.554688 -17.554688 12.921875 -14.421875 C 14.285156 -11.285156 16.304688 -8.898438 18.984375 -7.265625 C 21.660156 -5.628906 24.921875 -4.8125 28.765625 -4.8125 C 31.148438 -4.8125 33.410156 -5.164062 35.546875 -5.875 C 37.691406 -6.582031 39.664062 -7.640625 41.46875 -9.046875 C 42.195312 -9.535156 42.851562 -9.769531 43.4375 -9.75 C 44.03125 -9.726562 44.519531 -9.546875 44.90625 -9.203125 C 45.289062 -8.859375 45.566406 -8.414062 45.734375 -7.875 C 45.910156 -7.34375 45.910156 -6.785156 45.734375 -6.203125 C 45.566406 -5.617188 45.191406 -5.109375 44.609375 -4.671875 C 42.566406 -2.921875 40.171875 -1.59375 37.421875 -0.6875 C 34.671875 0.207031 31.738281 0.65625 28.625 0.65625 Z M 28.625 0.65625 "/></g></g></g><g fill="#F5F5F5" fill-opacity="1"><g transform="translate(252.984468, 157.410597)"><g><path d="M 20.296875 0.65625 C 16.835938 0.65625 13.84375 -0.0976562 11.3125 -1.609375 C 8.78125 -3.117188 6.820312 -5.25 5.4375 -8 C 4.050781 -10.75 3.359375 -14 3.359375 -17.75 C 3.359375 -20.570312 3.742188 -23.113281 4.515625 -25.375 C 5.296875 -27.632812 6.441406 -29.566406 7.953125 -31.171875 C 9.460938 -32.785156 11.25 -34.015625 13.3125 -34.859375 C 15.382812 -35.710938 17.710938 -36.140625 20.296875 -36.140625 C 23.753906 -36.140625 26.75 -35.382812 29.28125 -33.875 C 31.8125 -32.363281 33.769531 -30.234375 35.15625 -27.484375 C 36.539062 -24.734375 37.234375 -21.488281 37.234375 -17.75 C 37.234375 -14.925781 36.84375 -12.394531 36.0625 -10.15625 C 35.289062 -7.914062 34.148438 -5.976562 32.640625 -4.34375 C 31.128906 -2.707031 29.335938 -1.460938 27.265625 -0.609375 C 25.203125 0.234375 22.878906 0.65625 20.296875 0.65625 Z M 20.296875 -4.09375 C 22.484375 -4.09375 24.40625 -4.625 26.0625 -5.6875 C 27.71875 -6.757812 28.992188 -8.316406 29.890625 -10.359375 C 30.796875 -12.410156 31.25 -14.875 31.25 -17.75 C 31.25 -22.175781 30.265625 -25.554688 28.296875 -27.890625 C 26.328125 -30.222656 23.660156 -31.390625 20.296875 -31.390625 C 18.054688 -31.390625 16.117188 -30.863281 14.484375 -29.8125 C 12.859375 -28.769531 11.59375 -27.238281 10.6875 -25.21875 C 9.789062 -23.207031 9.34375 -20.71875 9.34375 -17.75 C 9.34375 -13.363281 10.335938 -9.988281 12.328125 -7.625 C 14.328125 -5.269531 16.984375 -4.09375 20.296875 -4.09375 Z M 20.296875 -4.09375 "/></g></g></g><g fill="#F5F5F5" fill-opacity="1"><g transform="translate(293.576785, 157.410597)"><g><path d="M 19.0625 0.65625 C 15.894531 0.65625 13.128906 -0.0976562 10.765625 -1.609375 C 8.410156 -3.117188 6.585938 -5.25 5.296875 -8 C 4.003906 -10.75 3.359375 -14 3.359375 -17.75 C 3.359375 -21.539062 4.003906 -24.8125 5.296875 -27.5625 C 6.585938 -30.3125 8.410156 -32.425781 10.765625 -33.90625 C 13.128906 -35.394531 15.894531 -36.140625 19.0625 -36.140625 C 22.269531 -36.140625 25.015625 -35.335938 27.296875 -33.734375 C 29.585938 -32.128906 31.125 -29.960938 31.90625 -27.234375 L 31.109375 -27.234375 L 31.109375 -49 C 31.109375 -49.96875 31.363281 -50.707031 31.875 -51.21875 C 32.382812 -51.726562 33.125 -51.984375 34.09375 -51.984375 C 35.019531 -51.984375 35.738281 -51.726562 36.25 -51.21875 C 36.757812 -50.707031 37.015625 -49.96875 37.015625 -49 L 37.015625 -2.5625 C 37.015625 -1.582031 36.769531 -0.820312 36.28125 -0.28125 C 35.800781 0.25 35.070312 0.515625 34.09375 0.515625 C 33.175781 0.515625 32.457031 0.25 31.9375 -0.28125 C 31.425781 -0.820312 31.171875 -1.582031 31.171875 -2.5625 L 31.171875 -9.484375 L 31.984375 -8.46875 C 31.203125 -5.695312 29.65625 -3.484375 27.34375 -1.828125 C 25.03125 -0.171875 22.269531 0.65625 19.0625 0.65625 Z M 20.296875 -4.09375 C 22.484375 -4.09375 24.40625 -4.625 26.0625 -5.6875 C 27.71875 -6.757812 28.992188 -8.316406 29.890625 -10.359375 C 30.796875 -12.410156 31.25 -14.875 31.25 -17.75 C 31.25 -22.175781 30.265625 -25.554688 28.296875 -27.890625 C 26.328125 -30.222656 23.660156 -31.390625 20.296875 -31.390625 C 18.054688 -31.390625 16.117188 -30.863281 14.484375 -29.8125 C 12.859375 -28.769531 11.59375 -27.238281 10.6875 -25.21875 C 9.789062 -23.207031 9.34375 -20.71875 9.34375 -17.75 C 9.34375 -13.363281 10.335938 -9.988281 12.328125 -7.625 C 14.328125 -5.269531 16.984375 -4.09375 20.296875 -4.09375 Z M 20.296875 -4.09375 "/></g></g></g><g fill="#F5F5F5" fill-opacity="1"><g transform="translate(336.140312, 157.410597)"><g><path d="M 21.546875 0.65625 C 17.796875 0.65625 14.566406 -0.0820312 11.859375 -1.5625 C 9.160156 -3.050781 7.066406 -5.15625 5.578125 -7.875 C 4.097656 -10.601562 3.359375 -13.867188 3.359375 -17.671875 C 3.359375 -21.367188 4.085938 -24.59375 5.546875 -27.34375 C 7.003906 -30.09375 9.007812 -32.242188 11.5625 -33.796875 C 14.125 -35.359375 17.082031 -36.140625 20.4375 -36.140625 C 22.820312 -36.140625 24.960938 -35.738281 26.859375 -34.9375 C 28.765625 -34.132812 30.382812 -32.976562 31.71875 -31.46875 C 33.0625 -29.957031 34.082031 -28.128906 34.78125 -25.984375 C 35.488281 -23.847656 35.84375 -21.441406 35.84375 -18.765625 C 35.84375 -17.984375 35.625 -17.410156 35.1875 -17.046875 C 34.75 -16.679688 34.117188 -16.5 33.296875 -16.5 L 7.890625 -16.5 L 7.890625 -20.375 L 31.90625 -20.375 L 30.734375 -19.421875 C 30.734375 -22.046875 30.34375 -24.269531 29.5625 -26.09375 C 28.789062 -27.925781 27.660156 -29.328125 26.171875 -30.296875 C 24.691406 -31.273438 22.832031 -31.765625 20.59375 -31.765625 C 18.101562 -31.765625 15.992188 -31.191406 14.265625 -30.046875 C 12.546875 -28.898438 11.242188 -27.316406 10.359375 -25.296875 C 9.484375 -23.273438 9.046875 -20.925781 9.046875 -18.25 L 9.046875 -17.8125 C 9.046875 -13.332031 10.128906 -9.925781 12.296875 -7.59375 C 14.460938 -5.257812 17.546875 -4.09375 21.546875 -4.09375 C 23.191406 -4.09375 24.832031 -4.3125 26.46875 -4.75 C 28.101562 -5.1875 29.695312 -5.914062 31.25 -6.9375 C 31.925781 -7.375 32.546875 -7.578125 33.109375 -7.546875 C 33.671875 -7.523438 34.117188 -7.359375 34.453125 -7.046875 C 34.796875 -6.734375 35.03125 -6.34375 35.15625 -5.875 C 35.28125 -5.414062 35.234375 -4.914062 35.015625 -4.375 C 34.796875 -3.84375 34.367188 -3.382812 33.734375 -3 C 32.128906 -1.820312 30.226562 -0.914062 28.03125 -0.28125 C 25.84375 0.34375 23.679688 0.65625 21.546875 0.65625 Z M 21.546875 0.65625 "/></g></g></g></svg>
